<?xml version="1.0" standalone="no"?>
<!DOCTYPE svg PUBLIC "-//W3C//DTD SVG 20010904//EN"
 "http://www.w3.org/TR/2001/REC-SVG-20010904/DTD/svg10.dtd">
<svg version="1.0" xmlns="http://www.w3.org/2000/svg"
 width="1024.000000pt" height="1024.000000pt" viewBox="0 0 1024.000000 1024.000000"
 preserveAspectRatio="xMidYMid meet">

<g transform="translate(0.000000,1024.000000) scale(0.100000,-0.100000)"
fill="#D92549" stroke="none">
<path d="M3817 9798 c-103 -177 -146 -312 -154 -475 -23 -463 247 -855 1017
-1478 366 -296 595 -528 747 -755 70 -105 146 -259 178 -363 27 -86 28 -110 3
-90 -7 6 -49 22 -93 36 -339 110 -744 144 -1085 92 -107 -17 -364 -79 -457
-112 l-52 -18 207 0 c180 -1 228 -4 364 -28 340 -60 547 -141 731 -288 l78
-62 -143 -59 c-425 -175 -877 -436 -1193 -691 -130 -104 -338 -307 -300 -292
101 40 289 98 370 114 196 39 514 71 718 71 l87 0 0 -39 c0 -38 -3 -42 -79
-95 -291 -205 -470 -490 -530 -845 -12 -68 -21 -132 -21 -143 0 -12 20 10 51
57 100 149 272 309 476 443 500 327 1123 382 1798 157 188 -62 340 -130 577
-258 95 -52 179 -96 187 -98 19 -7 -81 -71 -159 -102 -95 -38 -149 -48 -290
-56 l-125 -7 59 -27 c72 -34 207 -74 298 -88 74 -12 367 -7 408 6 l25 8 -20
-22 c-48 -55 -159 -126 -295 -189 -21 -10 -14 -11 40 -6 300 27 662 193 827
379 117 131 194 324 193 483 -1 44 -2 46 -15 27 -94 -129 -238 -193 -410 -182
-116 8 -205 34 -331 97 -88 43 -117 65 -216 158 -186 177 -338 279 -525 352
-109 43 -256 85 -338 96 -86 11 -82 18 28 62 131 51 248 85 402 114 104 19
153 22 365 23 264 0 316 -6 485 -55 202 -60 366 -164 414 -263 25 -52 28 -141
6 -213 -8 -27 -15 -50 -15 -52 0 -6 93 63 137 102 48 42 126 139 144 180 16
35 28 24 73 -72 41 -88 70 -210 61 -254 -4 -15 -3 -28 1 -28 16 0 153 111 216
175 157 159 238 337 238 523 0 143 -46 257 -148 364 -102 107 -228 171 -525
264 -128 40 -158 53 -215 96 -184 139 -406 356 -606 593 -373 441 -594 644
-1006 927 -194 133 -425 261 -821 456 -208 103 -415 213 -483 256 -251 162
-449 342 -588 537 -88 122 -207 359 -237 469 -33 122 -34 123 -43 40 -21 -199
42 -459 163 -673 151 -266 450 -556 798 -771 62 -38 110 -71 107 -73 -7 -7
-119 31 -266 89 -515 205 -911 527 -1105 899 -93 180 -163 437 -154 568 2 28
1 51 -3 51 -3 0 -17 -19 -31 -42z m1996 -2386 c196 -107 364 -237 632 -492
232 -221 512 -437 777 -602 54 -34 96 -63 94 -65 -2 -2 -34 3 -72 11 -38 9
-159 32 -269 52 -228 41 -285 58 -408 121 -125 65 -193 141 -276 309 -130 265
-324 504 -538 666 -51 38 -93 71 -93 73 0 7 51 -17 153 -73z m2687 -1496 c97
-36 166 -110 158 -172 -3 -23 -4 -23 -128 37 -102 50 -134 72 -182 121 -32 33
-58 64 -58 68 0 8 130 -26 210 -54z"/>
<path d="M4120 7664 c-352 -30 -636 -97 -955 -224 -152 -61 -363 -155 -373
-165 -4 -5 0 -6 9 -2 42 15 278 69 399 91 240 44 309 51 525 51 179 0 227 -4
324 -23 145 -29 280 -71 260 -82 -8 -4 -61 -15 -119 -25 -244 -41 -578 -141
-809 -242 -683 -296 -1282 -791 -1677 -1383 -51 -76 -49 -77 22 -10 249 236
499 394 759 479 107 34 165 46 391 75 28 4 8 -19 -171 -197 -219 -220 -349
-376 -497 -598 -465 -695 -680 -1516 -603 -2289 20 -202 30 -231 39 -115 30
380 95 673 233 1045 36 96 68 181 73 189 4 8 5 -64 3 -160 -13 -409 51 -786
193 -1156 52 -136 151 -353 140 -308 -3 11 -12 47 -20 80 -8 33 -25 137 -37
230 -26 199 -31 568 -11 750 72 633 268 1194 585 1670 214 321 466 581 827
849 8 6 -41 -50 -109 -124 -367 -403 -605 -823 -719 -1265 -92 -357 -115 -784
-61 -1155 133 -933 736 -1708 1705 -2193 385 -193 864 -355 1168 -397 44 -5
81 -9 83 -7 2 2 -18 12 -44 22 -97 37 -331 149 -478 230 -969 531 -1550 1165
-1719 1875 -33 136 -46 249 -45 380 0 98 1 103 13 70 7 -19 35 -78 61 -130
162 -323 397 -568 760 -792 210 -129 441 -240 902 -433 585 -245 829 -369
1123 -566 80 -54 195 -137 255 -185 149 -119 438 -410 564 -569 115 -143 272
-374 353 -520 29 -52 54 -91 56 -85 10 29 -97 375 -184 599 -213 545 -520
1031 -855 1356 -196 190 -389 335 -634 475 -60 35 -121 70 -135 79 -24 15 -25
15 -10 -4 8 -11 35 -45 60 -75 121 -145 274 -370 355 -520 61 -114 97 -190 89
-190 -3 0 -39 28 -82 63 -240 198 -417 294 -868 477 -326 132 -561 248 -699
346 -305 216 -478 488 -546 859 -31 168 -31 403 -1 567 53 281 194 590 335
732 l49 49 -115 -6 c-220 -12 -472 -79 -637 -169 -101 -55 -172 -108 -252
-187 -38 -36 -68 -61 -68 -55 0 29 57 172 110 279 137 272 361 517 694 759
195 142 535 333 776 435 51 22 53 24 35 38 -99 74 -443 196 -685 242 -132 25
-308 43 -485 49 l-190 7 85 53 c352 219 794 329 1235 308 232 -11 350 -31 570
-94 30 -8 -81 116 -276 309 -279 277 -539 496 -616 519 -38 11 -348 21 -433
14z"/>
<path d="M2551 2879 c-1 -3 12 -73 29 -155 67 -340 215 -657 422 -901 123
-146 276 -275 495 -420 202 -132 335 -259 416 -395 42 -70 42 -55 0 72 -53
158 -141 301 -290 471 -56 62 -112 123 -124 134 -486 402 -723 699 -932 1165
-9 19 -16 32 -16 29z"/>
</g>
</svg>
